<svg width="1771" height="1779" viewBox="0 0 1771 1779" fill="none" xmlns="http://www.w3.org/2000/svg">
<path d="M15 404.035H511.5C543.5 -152.465 1260 -75.4649 1260 404.035H1756V1763.03H15V404.035Z" fill="#F8F9F3" stroke="#2376E4" stroke-width="30" stroke-linejoin="round"/>
<ellipse cx="892" cy="402" rx="326" ry="345" fill="#F8F9F3"/>
<rect x="56" y="450" width="1658" height="1270" fill="#F8F9F3"/>
<path d="M66 456.218L65.9695 446.218L56 446.248V456.218H66ZM1704 454.723H1714C1714 449.2 1709.52 444.723 1704 444.723V454.723ZM1704 1710V1720C1709.52 1720 1714 1715.52 1714 1710H1704ZM66 1710H56C56 1715.52 60.4771 1720 66 1720V1710ZM1694 454.723V1710H1714V454.723H1694ZM1704 1700H66V1720H1704V1700ZM76 1710V456.218H56V1710H76ZM66.0305 466.218L526.824 464.814L526.763 444.814L65.9695 446.218L66.0305 466.218ZM567.391 424.835C573.355 297.422 617.496 208.327 679.095 152.34C740.771 96.2832 820.826 72.6064 900.115 77.6652C1058.81 87.7903 1212.77 212.709 1207.01 421.037L1227 421.591C1233.1 201.121 1069.4 68.4249 901.389 57.7058C817.326 52.3424 731.771 77.4361 665.643 137.54C599.437 197.715 553.579 292.172 547.413 423.9L567.391 424.835ZM1248.06 464.723H1704V444.723H1248.06V464.723ZM1207.01 421.037C1206.37 443.852 1224.06 464.723 1248.06 464.723V444.723C1236.49 444.723 1226.64 434.348 1227 421.591L1207.01 421.037ZM526.824 464.814C549.169 464.746 566.392 446.178 567.391 424.835L547.413 423.9C546.866 435.587 537.485 444.781 526.763 444.814L526.824 464.814Z" fill="#F7C600"/>
<path d="M476 1594.2C497.6 1594.2 514.4 1591.8 526.4 1587C539.2 1582.2 548.8 1575 555.2 1565.4C561.6 1555 565.6 1541.8 567.2 1525.8C569.6 1509.8 570.8 1491 570.8 1469.4V687C562 671 554 657 546.8 645C540.4 632.2 534.8 621.4 530 612.6C524.4 602.2 519.2 593 514.4 585H690.8C697.2 597 710.4 621.4 730.4 658.2C751.2 695 776 739.4 804.8 791.4C833.6 843.4 865.2 900.6 899.6 963C934 1024.6 968.4 1086.6 1002.8 1149C1037.2 1210.6 1070 1270.2 1101.2 1327.8C1133.2 1385.4 1161.2 1435.4 1185.2 1477.8V721.8C1185.2 700.2 1184 681.4 1181.6 665.4C1180 649.4 1176 636.6 1169.6 627C1163.2 616.6 1153.6 609 1140.8 604.2C1128.8 599.4 1112 597 1090.4 597V585C1114.4 585.8 1134.4 586.6 1150.4 587.4C1167.2 587.4 1182.4 587.4 1196 587.4C1210.4 587.4 1224.8 587.4 1239.2 587.4C1254.4 586.6 1272.4 585.8 1293.2 585V597C1271.6 597 1254.4 599 1241.6 603C1229.6 607 1220.4 613.8 1214 623.4C1207.6 633 1203.2 646.2 1200.8 663C1199.2 679 1198.4 699 1198.4 723V1501.8C1207.2 1517.8 1215.2 1532.2 1222.4 1545C1229.6 1557.8 1235.6 1568.6 1240.4 1577.4C1246 1587.8 1251.2 1597.4 1256 1606.2H1080.8C1071.2 1588.6 1055.2 1560.2 1032.8 1521C1011.2 1481 985.6 1435 956 1383C927.2 1330.2 896 1273.4 862.4 1212.6C828.8 1151 795.2 1090.2 761.6 1030.2C728 969.4 695.6 911.4 664.4 856.2C634 800.2 607.2 751.4 584 709.8V1473C584 1496.2 584.8 1515.8 586.4 1531.8C588.8 1547 593.2 1559.4 599.6 1569C606 1577.8 615.2 1584.2 627.2 1588.2C640 1592.2 657.2 1594.2 678.8 1594.2V1606.2C658 1605.4 640 1605 624.8 1605C610.4 1604.2 596 1603.8 581.6 1603.8C568 1603.8 552.8 1604.2 536 1605C520 1605 500 1605.4 476 1606.2V1594.2Z" fill="#001E08"/>
<path fill-rule="evenodd" clip-rule="evenodd" d="M349.5 563.202C354.833 563.202 359.666 560.457 363.187 556.009C361.381 562.679 354.369 574.118 288.503 572.201C264.345 577.261 247.662 589.003 244.393 615.146C244.318 615.025 244.243 614.904 244.168 614.782C244.047 614.586 243.927 614.389 243.807 614.192L244.143 614.557C241.185 598.436 252.375 585.462 262 574.301C269.133 566.031 275.408 558.756 274.429 551.934C265.429 511.817 228.605 522.976 225.049 524.133C224.636 524.849 225.941 526.136 228.01 528.177C233.526 533.62 244.474 544.423 242.775 564.038C237.221 574.808 233.666 582.041 232.268 587.827C231.612 585.345 231.069 582.816 230.66 580.247C234.143 562.34 233.776 538.942 218 525.702C198.5 506.702 177.5 525.702 175 528.482C175 529.297 176.158 529.762 178.122 530.551C183.462 532.695 194.766 537.233 205 557.703C211.963 571.628 213.959 584.558 214.953 593.628C207.987 579.36 190.245 551.384 173 532.702C155.755 514.02 131.024 514.147 126.344 514.171C126.2 514.172 126.076 514.173 125.971 514.173C125.971 517.202 125.971 542.173 145 561.202C162.056 578.258 186.458 596.563 202.646 602.58C193.894 601.441 182.439 599.156 170.217 593.045C149.748 582.81 145.209 571.507 143.065 566.167C142.276 564.202 141.811 563.045 140.996 563.045C138.216 565.545 119.216 586.544 138.216 606.045C151.97 622.432 176.686 622.193 194.82 618.282C197.167 618.874 199.363 619.484 201.423 620.113C195.29 621.025 187.623 624.64 175.498 630.702C155.864 632.156 145.198 621.074 139.825 615.491C137.809 613.397 136.538 612.076 135.818 612.48C134.616 616.02 122.998 652.703 163 662.203C169.809 663.266 177.161 657.084 185.52 650.054C196.637 640.706 209.535 629.861 225.3 632.573L225.487 632.931C200.707 636.773 189.424 653.219 184.493 676.768C186.532 746.855 173.449 750.303 167.081 751.749L165.477 751.504C170.818 747.928 174.202 742.623 174.202 736.702C174.202 725.932 163.009 717.202 149.202 717.202C135.395 717.202 124.202 725.932 124.202 736.702C123.401 749.708 125.034 755.428 128.166 757.609C137.313 769.961 144.628 775.256 163.5 778.702C179.218 777.476 186.861 771.595 199.5 756.702L199.197 756.656C217.516 739.472 210.449 698.655 207.742 683.015C207.065 679.104 206.66 676.768 206.993 676.768C208.89 659.22 223.378 647.072 237.663 658.233C223.925 658.875 213 669.361 213 682.202C213 695.457 224.641 706.202 239 706.202C248.417 706.202 256.665 701.581 261.227 694.661C274.308 678.567 270.083 660.58 263.074 651.501L263.161 651.448C274.153 659.166 291.005 661.197 305.079 650.272C312.758 645.935 318 637.232 318 627.202C318 612.843 307.255 601.202 294 601.202C281.28 601.202 270.871 611.923 270.052 625.478C258.746 611.158 270.912 596.603 288.503 594.701C288.503 594.368 290.839 594.773 294.75 595.45C310.412 598.162 351.322 605.245 368.464 586.828L368.527 587.246C383.421 574.606 389.301 566.964 390.527 551.246C386.997 531.917 381.53 524.713 368.527 515.246L368.506 515.385C365.472 513.451 359.748 512.571 349.5 513.202C338.73 513.202 330 524.395 330 538.202C330 552.009 338.73 563.202 349.5 563.202Z" fill="#A0B74D"/>
<path fill-rule="evenodd" clip-rule="evenodd" d="M1420.03 563.202C1414.69 563.202 1409.86 560.457 1406.34 556.009C1408.15 562.679 1415.16 574.118 1481.02 572.201C1505.18 577.261 1521.87 589.003 1525.13 615.146C1525.33 614.83 1525.53 614.511 1525.72 614.191L1525.55 614.374L1525.38 614.557C1528.34 598.436 1517.15 585.462 1507.53 574.301C1500.39 566.031 1494.12 558.756 1495.1 551.934C1504.1 511.817 1540.92 522.976 1544.48 524.133C1544.89 524.849 1543.59 526.136 1541.52 528.177C1536 533.62 1525.05 544.423 1526.75 564.038C1532.31 574.808 1535.86 582.041 1537.26 587.827C1537.91 585.345 1538.46 582.816 1538.87 580.247C1535.38 562.34 1535.75 538.942 1551.53 525.702C1571.03 506.702 1592.03 525.702 1594.53 528.482C1594.53 529.297 1593.37 529.762 1591.4 530.551C1586.06 532.695 1574.76 537.233 1564.53 557.703C1557.56 571.628 1555.57 584.558 1554.57 593.628C1561.54 579.361 1579.28 551.384 1596.53 532.702C1613.77 514.02 1638.5 514.147 1643.18 514.171C1643.33 514.172 1643.45 514.173 1643.56 514.173C1643.56 517.202 1643.56 542.173 1624.53 561.202C1607.47 578.258 1583.07 596.563 1566.88 602.58C1575.63 601.441 1587.09 599.156 1599.31 593.045C1619.78 582.81 1624.32 571.507 1626.46 566.167C1627.25 564.202 1627.72 563.045 1628.53 563.045C1631.31 565.545 1650.31 586.544 1631.31 606.045C1617.56 622.432 1592.84 622.193 1574.71 618.282C1572.36 618.874 1570.16 619.484 1568.1 620.113C1574.24 621.025 1581.9 624.64 1594.03 630.702C1613.66 632.156 1624.33 621.074 1629.7 615.491C1631.72 613.397 1632.99 612.076 1633.71 612.48C1634.91 616.02 1646.53 652.703 1606.53 662.203C1599.72 663.266 1592.37 657.084 1584.01 650.054C1572.89 640.706 1559.99 629.861 1544.23 632.573L1544.04 632.931C1568.82 636.773 1580.1 653.219 1585.03 676.768C1582.99 746.855 1596.08 750.303 1602.45 751.749L1604.05 751.504C1598.71 747.928 1595.33 742.623 1595.33 736.702C1595.33 725.932 1606.52 717.202 1620.33 717.202C1634.13 717.202 1645.33 725.932 1645.33 736.702C1646.13 749.708 1644.49 755.428 1641.36 757.609C1632.21 769.961 1624.9 775.255 1606.03 778.702C1590.31 777.476 1582.67 771.595 1570.03 756.702L1570.33 756.656C1552.01 739.472 1559.08 698.655 1561.79 683.015C1562.46 679.104 1562.87 676.768 1562.53 676.768C1560.64 659.22 1546.15 647.072 1531.86 658.233C1545.6 658.875 1556.53 669.361 1556.53 682.202C1556.53 695.457 1544.89 706.202 1530.53 706.202C1521.11 706.202 1512.86 701.581 1508.3 694.661C1495.22 678.567 1499.44 660.58 1506.45 651.501L1506.37 651.448C1495.37 659.166 1478.52 661.197 1464.45 650.271C1456.77 645.935 1451.53 637.231 1451.53 627.202C1451.53 612.842 1462.27 601.202 1475.53 601.202C1488.25 601.202 1498.66 611.922 1499.48 625.478C1510.78 611.158 1498.62 596.603 1481.02 594.701C1481.02 594.368 1478.69 594.773 1474.78 595.45C1459.12 598.162 1418.2 605.244 1401.06 586.828L1401 587.246C1386.11 574.606 1380.23 566.964 1379 551.246C1382.53 531.917 1388 524.713 1401 515.246L1401.02 515.385C1404.06 513.451 1409.78 512.571 1420.03 513.202C1430.8 513.202 1439.53 524.395 1439.53 538.202C1439.53 552.009 1430.8 563.202 1420.03 563.202Z" fill="#A0B74D"/>
<path fill-rule="evenodd" clip-rule="evenodd" d="M349.5 1593.5C354.833 1593.5 359.666 1596.25 363.187 1600.69C361.381 1594.02 354.368 1582.58 288.503 1584.5C264.345 1579.44 247.662 1567.7 244.393 1541.56C244.197 1541.87 244.002 1542.19 243.807 1542.51L243.975 1542.33L244.143 1542.15C241.185 1558.27 252.375 1571.24 262 1582.4C269.133 1590.67 275.408 1597.95 274.429 1604.77C265.429 1644.89 228.605 1633.73 225.05 1632.57C224.637 1631.85 225.941 1630.57 228.01 1628.52C233.526 1623.08 244.474 1612.28 242.775 1592.66C237.221 1581.89 233.666 1574.66 232.269 1568.87C231.613 1571.36 231.07 1573.89 230.66 1576.45C234.144 1594.36 233.776 1617.76 218 1631C198.5 1650 177.5 1631 175 1628.22C175 1627.4 176.158 1626.94 178.122 1626.15C183.462 1624.01 194.766 1619.47 205 1599C211.963 1585.07 213.959 1572.14 214.953 1563.07C207.988 1577.34 190.245 1605.32 173 1624C155.755 1642.68 131.024 1642.55 126.344 1642.53C126.2 1642.53 126.076 1642.53 125.971 1642.53C125.971 1639.5 125.971 1614.53 145 1595.5C162.056 1578.44 186.458 1560.14 202.647 1554.12C193.895 1555.26 182.439 1557.55 170.217 1563.66C149.748 1573.89 145.209 1585.2 143.065 1590.54C142.276 1592.5 141.811 1593.66 140.996 1593.66C138.216 1591.16 119.216 1570.16 138.216 1550.66C151.97 1534.27 176.686 1534.51 194.821 1538.42C197.167 1537.83 199.363 1537.22 201.423 1536.59C195.29 1535.68 187.623 1532.06 175.498 1526C155.864 1524.55 145.198 1535.63 139.825 1541.21C137.81 1543.31 136.539 1544.63 135.818 1544.22C134.616 1540.68 122.998 1504 163 1494.5C169.809 1493.44 177.162 1499.62 185.521 1506.65C196.638 1516 209.535 1526.84 225.301 1524.13L225.487 1523.77C200.707 1519.93 189.425 1503.48 184.493 1479.93C186.532 1409.85 173.449 1406.4 167.081 1404.95L165.477 1405.2C170.818 1408.77 174.202 1414.08 174.202 1420C174.202 1430.77 163.009 1439.5 149.202 1439.5C135.395 1439.5 124.202 1430.77 124.202 1420C123.401 1406.99 125.034 1401.27 128.166 1399.09C137.313 1386.74 144.627 1381.45 163.5 1378C179.218 1379.23 186.861 1385.11 199.5 1400L199.197 1400.05C217.516 1417.23 210.45 1458.05 207.742 1473.69C207.065 1477.6 206.66 1479.93 206.993 1479.93C208.89 1497.48 223.378 1509.63 237.663 1498.47C223.925 1497.83 213 1487.34 213 1474.5C213 1461.25 224.641 1450.5 239 1450.5C248.417 1450.5 256.664 1455.12 261.226 1462.04C274.308 1478.13 270.083 1496.12 263.074 1505.2L263.162 1505.25C274.153 1497.54 291.005 1495.5 305.08 1506.43C312.758 1510.77 318 1519.47 318 1529.5C318 1543.86 307.255 1555.5 294 1555.5C281.28 1555.5 270.871 1544.78 270.052 1531.22C258.746 1545.54 270.912 1560.1 288.503 1562C288.503 1562.33 290.839 1561.93 294.75 1561.25C310.412 1558.54 351.322 1551.46 368.464 1569.87L368.527 1569.46C383.421 1582.1 389.301 1589.74 390.527 1605.46C386.998 1624.78 381.53 1631.99 368.527 1641.46L368.506 1641.32C365.472 1643.25 359.748 1644.13 349.5 1643.5C338.73 1643.5 330 1632.31 330 1618.5C330 1604.69 338.73 1593.5 349.5 1593.5Z" fill="#A0B74D"/>
<path fill-rule="evenodd" clip-rule="evenodd" d="M1420.03 1593.5C1414.69 1593.5 1409.86 1596.25 1406.34 1600.69C1408.15 1594.02 1415.16 1582.58 1481.02 1584.5C1505.18 1579.44 1521.87 1567.7 1525.13 1541.56C1525.33 1541.87 1525.53 1542.19 1525.72 1542.51L1525.55 1542.33L1525.38 1542.15C1528.34 1558.27 1517.15 1571.24 1507.53 1582.4C1500.39 1590.67 1494.12 1597.95 1495.1 1604.77C1504.1 1644.89 1540.92 1633.73 1544.48 1632.57C1544.89 1631.85 1543.59 1630.57 1541.52 1628.52C1536 1623.08 1525.05 1612.28 1526.75 1592.66C1532.31 1581.89 1535.86 1574.66 1537.26 1568.87C1537.91 1571.36 1538.46 1573.89 1538.87 1576.45C1535.38 1594.36 1535.75 1617.76 1551.53 1631C1571.03 1650 1592.03 1631 1594.53 1628.22C1594.53 1627.4 1593.37 1626.94 1591.4 1626.15C1586.06 1624.01 1574.76 1619.47 1564.53 1599C1557.56 1585.07 1555.57 1572.14 1554.57 1563.07C1561.54 1577.34 1579.28 1605.32 1596.53 1624C1613.77 1642.68 1638.5 1642.55 1643.18 1642.53C1643.33 1642.53 1643.45 1642.53 1643.56 1642.53C1643.56 1639.5 1643.56 1614.53 1624.53 1595.5C1607.47 1578.44 1583.07 1560.14 1566.88 1554.12C1575.63 1555.26 1587.09 1557.55 1599.31 1563.66C1619.78 1573.89 1624.32 1585.2 1626.46 1590.54C1627.25 1592.5 1627.72 1593.66 1628.53 1593.66C1631.31 1591.16 1650.31 1570.16 1631.31 1550.66C1617.56 1534.27 1592.84 1534.51 1574.71 1538.42C1572.36 1537.83 1570.16 1537.22 1568.1 1536.59C1574.24 1535.68 1581.9 1532.06 1594.03 1526C1613.66 1524.55 1624.33 1535.63 1629.7 1541.21C1631.72 1543.31 1632.99 1544.63 1633.71 1544.22C1634.91 1540.68 1646.53 1504 1606.53 1494.5C1599.72 1493.44 1592.37 1499.62 1584.01 1506.65C1572.89 1516 1559.99 1526.84 1544.23 1524.13L1544.04 1523.77C1568.82 1519.93 1580.1 1503.48 1585.03 1479.93C1582.99 1409.85 1596.08 1406.4 1602.45 1404.95L1604.05 1405.2C1598.71 1408.77 1595.33 1414.08 1595.33 1420C1595.33 1430.77 1606.52 1439.5 1620.33 1439.5C1634.13 1439.5 1645.33 1430.77 1645.33 1420C1646.13 1406.99 1644.49 1401.27 1641.36 1399.09C1632.21 1386.74 1624.9 1381.45 1606.03 1378C1590.31 1379.23 1582.67 1385.11 1570.03 1400L1570.33 1400.05C1552.01 1417.23 1559.08 1458.05 1561.79 1473.69C1562.46 1477.6 1562.87 1479.93 1562.53 1479.93C1560.64 1497.48 1546.15 1509.63 1531.86 1498.47C1545.6 1497.83 1556.53 1487.34 1556.53 1474.5C1556.53 1461.25 1544.89 1450.5 1530.53 1450.5C1521.11 1450.5 1512.86 1455.12 1508.3 1462.04C1495.22 1478.13 1499.44 1496.12 1506.45 1505.2L1506.37 1505.25C1495.37 1497.54 1478.52 1495.5 1464.45 1506.43C1456.77 1510.77 1451.53 1519.47 1451.53 1529.5C1451.53 1543.86 1462.27 1555.5 1475.53 1555.5C1488.25 1555.5 1498.66 1544.78 1499.48 1531.22C1510.78 1545.54 1498.62 1560.1 1481.02 1562C1481.02 1562.33 1478.69 1561.93 1474.78 1561.25C1459.12 1558.54 1418.2 1551.46 1401.06 1569.87L1401 1569.46C1386.11 1582.1 1380.23 1589.74 1379 1605.46C1382.53 1624.78 1388 1631.99 1401 1641.46L1401.02 1641.32C1404.06 1643.25 1409.78 1644.13 1420.03 1643.5C1430.8 1643.5 1439.53 1632.31 1439.53 1618.5C1439.53 1604.69 1430.8 1593.5 1420.03 1593.5Z" fill="#A0B74D"/>
<path fill-rule="evenodd" clip-rule="evenodd" d="M1047.5 408.006C1052.45 412.959 1059.49 414.898 1066.88 414.036C1059.01 418.553 1041.88 422.663 982.5 359.723C955.371 341.989 928.976 337.402 901.665 358.642C901.777 358.166 901.891 357.69 902.007 357.212C901.998 357.428 901.989 357.644 901.98 357.862C914.202 340.147 936.64 338.49 955.941 337.064C970.244 336.008 982.825 335.078 988.251 327.836C1017.15 282.227 972.59 258.395 968.214 256.169C967.166 256.45 967.182 258.856 967.208 262.673C967.275 272.849 967.41 293.046 947.619 309.682C932.461 314.526 922.444 317.941 915.774 322.016C917.47 319.102 919.314 316.249 921.319 313.483C941.181 300.091 962.566 278.023 960.211 251.08C959.747 215.33 922.605 213.473 917.702 213.733C916.945 214.49 917.589 215.996 918.68 218.553C921.648 225.502 927.929 240.213 918.426 268.723C911.96 288.12 901.807 301.98 894.307 311.325C901.088 291.609 910.591 249.156 911.926 215.794C913.26 182.433 890.177 159.587 885.809 155.264C885.676 155.131 885.559 155.016 885.462 154.919C882.649 157.732 859.462 180.918 859.462 216.258C859.462 247.933 865.123 287.588 874.567 308.208C867.499 299.023 858.984 286.265 853.31 269.242C843.806 240.731 850.088 226.021 853.055 219.071C854.147 216.515 854.79 215.008 854.034 214.252C849.131 213.992 811.988 215.848 811.524 251.599C809.078 279.587 832.25 302.315 852.722 315.522C854.351 318.251 855.824 320.856 857.153 323.353C850.611 318.506 840.134 314.743 823.246 309.113C803.664 292.231 804.051 272.038 804.246 261.863C804.319 258.047 804.365 255.641 803.321 255.347C798.918 257.518 754.068 280.792 782.391 326.758C787.725 334.068 800.294 335.154 814.583 336.389C833.586 338.032 855.633 339.937 867.754 357.096L867.595 357.601C841.017 338.158 815.269 342.953 788.824 360.24C725.637 427.214 710.287 418.268 703.031 413.697L701.769 411.98C710.05 413.619 718.117 411.835 723.615 406.337C733.615 396.337 731.329 377.837 718.508 365.016C705.687 352.195 687.187 349.908 677.187 359.909C664.367 371.243 660.572 378.069 661.454 383.003C658.479 402.967 660.354 414.674 674.678 435.399C690.412 448.856 702.969 450.492 728.535 448.399L728.297 448.075C761.263 449.129 792.602 404.666 804.611 387.629C807.614 383.369 809.408 380.824 809.717 381.133C827.772 366.6 852.505 368.773 855.407 392.401C842.053 380.241 822.172 379.833 810.249 391.757C797.941 404.065 798.772 424.851 812.106 438.185C820.85 446.929 832.799 450.296 843.46 448.107C870.552 445.31 883.331 424.685 885.254 409.746L885.384 409.778C888.424 427.151 902.186 444.686 925.401 447.609C936.557 450.712 949.506 447.498 958.819 438.185C972.152 424.851 972.984 404.065 960.676 391.757C948.864 379.945 929.244 380.235 915.896 392.062C918.695 368.267 943.507 366.047 961.607 380.616C961.916 380.307 963.711 382.852 966.713 387.112C978.739 404.174 1010.15 448.738 1043.17 447.553L1042.84 448.001C1068.4 450.094 1080.96 448.458 1096.7 435.001C1111.37 413.776 1112.98 402.009 1109.7 381.144L1109.55 381.254C1108.52 376.641 1104.03 370.509 1093.92 361.578C1083.92 351.578 1065.42 353.865 1052.6 366.685C1039.78 379.506 1037.5 398.006 1047.5 408.006Z" fill="#F7C600"/>
</svg>
