<svg width="1728" height="1117" viewBox="0 0 1728 1117" fill="none" xmlns="http://www.w3.org/2000/svg">
<g clip-path="url(#clip0_160_4598)">
<rect width="1728" height="1117" fill="#001E08"/>
<path d="M631.797 274.62C684.988 274.62 728.107 231.5 728.107 178.31C728.107 125.119 684.988 82 631.797 82C578.607 82 535.487 125.119 535.487 178.31C535.487 231.5 578.607 274.62 631.797 274.62Z" fill="#ECB73B"/>
<path d="M339 231.178H610.123C595.387 213.277 571.901 205.357 551.46 213.686C545.035 195.425 531.562 180.904 515.899 172.062C500.237 163.219 482.508 159.708 464.966 159.337C444.449 158.903 423.702 162.71 404.977 172.097C386.251 181.485 369.621 196.62 358.88 216.179C350.751 212.374 340.356 221.438 339 231.178Z" fill="#F8F9F3"/>
<path d="M901.504 146.241H804.504C807.057 143.288 810.245 140.871 814.079 140.129C817.912 139.387 821.987 139.975 825.457 141.764C832.326 131.803 842.953 123.825 854.948 122.221C866.94 120.617 880.071 126.044 885.913 136.639C888.907 135.922 891.996 136.345 894.675 137.861C897.353 139.378 900.582 143.303 901.504 146.241Z" fill="#F8F9F3"/>
<g clip-path="url(#clip1_160_4598)">
<path d="M1728.16 -235H0.162109V1492H1728.16V-235Z" fill="#001E08"/>
<path d="M1728.16 1109.95H0V1500.06H1728.16V1109.95Z" fill="#00B3CF"/>
<path d="M945.057 1049.86H653.824L355.284 243.709H646.518L945.057 1049.86Z" fill="#001E08"/>
<path d="M969.878 1067.13H641.793L330.463 226.439H658.548L969.878 1067.13ZM665.854 1032.59H920.236L634.487 260.979H380.105L665.854 1032.59Z" fill="#F8F9F3"/>
<path d="M665.553 243.709H630.993V1036.75H665.553V243.709Z" fill="#F8F9F3"/>
<path d="M727.941 463.757H445.354V498.297H727.941V463.757Z" fill="#F8F9F3"/>
<path d="M814.182 703.754H531.595V738.294H814.182V703.754Z" fill="#F8F9F3"/>
<path d="M0 243.709V937.615L256.971 243.709H0Z" fill="#001E08"/>
<path d="M0.162109 226.439V260.979H232.54L157.445 463.757H0.162109V498.297H144.654L68.5667 703.755H0.162109V738.295H55.7761L0.162109 888.471V987.984L282.182 226.439H0.162109Z" fill="#F8F9F3"/>
<path d="M355.284 1070.39H253.844C252.7 1070.39 251.77 1069.46 251.77 1068.32V421.11C251.77 391.969 275.406 368.347 304.564 368.347C333.722 368.347 357.358 391.969 357.358 421.11V1068.31C357.358 1069.46 356.432 1070.39 355.284 1070.39Z" fill="#D8D8D8"/>
<path d="M1313.29 1069.87H1233.17L1273.23 -59L1313.29 1069.87Z" fill="#D8D8D8"/>
<path d="M1357.59 282.277C1357.59 317.415 1319.66 356.107 1272.88 356.107C1226.09 356.107 1188.16 317.415 1188.16 282.277C1188.16 247.14 1226.09 228.861 1272.88 228.861C1319.66 228.861 1357.59 247.14 1357.59 282.277Z" fill="#F8F9F3"/>
<path d="M1355.01 299.85H1191.46C1179.11 299.85 1169 289.747 1169 277.399C1169 265.051 1179.11 254.948 1191.46 254.948H1355.01C1367.36 254.948 1377.47 265.051 1377.47 277.399C1377.47 289.747 1367.36 299.85 1355.01 299.85Z" fill="#D8D8D8"/>
<path d="M1346.07 313.006H1199.68C1194.18 313.006 1189.68 317.503 1189.68 322.998C1189.68 328.494 1194.18 332.991 1199.68 332.991H1346.07C1351.57 332.991 1356.07 328.494 1356.07 322.998C1356.07 317.503 1351.57 313.006 1346.07 313.006Z" fill="#D8D8D8"/>
<path d="M1285.16 230.807H1260.59V149.613C1260.59 144.412 1264.81 140.191 1270.01 140.191H1275.73C1280.94 140.191 1285.16 144.408 1285.16 149.613V230.807Z" fill="#F8F9F3"/>
<path d="M1294.27 233.235H1251.48V212C1251.48 206.798 1255.7 202.581 1260.9 202.581H1284.85C1290.05 202.581 1294.28 206.798 1294.28 212V233.235H1294.27Z" fill="#F8F9F3"/>
<path d="M908.506 348.979H889.637V246.575C889.637 241.373 893.856 237.156 899.061 237.156H899.078C904.283 237.156 908.506 241.373 908.506 246.575V348.979Z" fill="#F8F9F3"/>
<path d="M1356.17 575.026H1327.35V511.949C1327.35 504.002 1333.79 497.56 1341.74 497.56H1341.77C1349.72 497.56 1356.17 504.002 1356.17 511.949V575.026Z" fill="#F8F9F3"/>
<path d="M1370.58 575.025H1312.93V590.979H1370.58V575.025Z" fill="#F8F9F3"/>
<path d="M1443.67 575.025H1401.54V590.979H1443.67V575.025Z" fill="#F8F9F3"/>
<path d="M1362.48 521.441H1321.03V541.906H1362.48V521.441Z" fill="#D8D8D8"/>
<path d="M400.587 575.026H371.768V511.949C371.768 504.002 378.213 497.56 386.165 497.56H386.189C394.142 497.56 400.587 504.002 400.587 511.949V575.026Z" fill="#F8F9F3"/>
<path d="M414.999 575.025H357.356V590.979H414.999V575.025Z" fill="#F8F9F3"/>
<path d="M406.906 521.441H365.455V541.906H406.906V521.441Z" fill="#D8D8D8"/>
<path d="M1432.04 575.026H1413.17V527.147C1413.17 521.945 1417.39 517.724 1422.6 517.724H1422.61C1427.81 517.724 1432.04 521.941 1432.04 527.147V575.026Z" fill="#F8F9F3"/>
<path d="M1437.74 534.407H1407.47V554.872H1437.74V534.407Z" fill="#D8D8D8"/>
<path d="M326.395 575.174H284.266V591.128H326.395V575.174Z" fill="#F8F9F3"/>
<path d="M314.766 575.174H295.896V527.292C295.896 522.09 300.116 517.869 305.324 517.869H305.342C310.546 517.869 314.77 522.086 314.77 527.292L314.766 575.174Z" fill="#F8F9F3"/>
<path d="M320.465 534.559H290.201V555.024H320.465V534.559Z" fill="#D8D8D8"/>
<path d="M927.162 244.609H927.148C921.944 244.609 917.72 248.827 917.72 254.028V324.859H881.08V302.056H868.569V212.843H859.362V302.056H846.852V324.859H838.294V246.575C838.294 241.373 834.075 237.155 828.87 237.155H828.853C823.648 237.155 819.425 241.373 819.425 246.575V324.859H810.211V254.028C810.211 248.827 805.991 244.609 800.787 244.609H800.769C795.564 244.609 791.345 248.827 791.345 254.028V324.859V348.979H810.211H819.425H838.294H846.852H881.076H917.717H936.587V324.859V254.028C936.587 248.827 932.367 244.609 927.162 244.609Z" fill="#F8F9F3"/>
<path d="M952.17 321.571H952.159C948.285 321.571 945.144 324.711 945.144 328.583V348.982H959.185V328.583C959.185 324.711 956.044 321.571 952.17 321.571Z" fill="#F8F9F3"/>
<path d="M775.775 321.571H775.765C771.891 321.571 768.749 324.711 768.749 328.583V348.982H782.791V328.583C782.791 324.711 779.649 321.571 775.775 321.571Z" fill="#F8F9F3"/>
<path d="M959.185 366.74H768.749V597.408H959.185V366.74Z" fill="#F8F9F3"/>
<path d="M959.185 597.411H768.749V724.587H959.185V597.411Z" fill="#F8F9F3"/>
<path d="M959.185 833.6H768.749V1023.93H959.185V833.6Z" fill="#F8F9F3"/>
<path d="M959.185 734.086H768.749V813.131H959.185V734.086Z" fill="#F8F9F3"/>
<path d="M1063.43 734.086H959.04V813.131H1063.43V734.086Z" fill="#D8D8D8"/>
<path d="M1063.43 833.6H959.04V1023.93H1063.43V833.6Z" fill="#D8D8D8"/>
<path d="M1224.4 611.444H1120.01V1023.92H1224.4V611.444Z" fill="#F8F9F3"/>
<path d="M1370.58 611.444H1224.4V1023.92H1370.58V611.444Z" fill="#F8F9F3"/>
<path d="M1443.67 611.444H1370.58V1023.92H1443.67V611.444Z" fill="#F8F9F3"/>
<path d="M357.357 611.444H284.266V1023.92H357.357V611.444Z" fill="#F8F9F3"/>
<path d="M1224.4 518.021H1120.01V590.976H1224.4V518.021Z" fill="#F8F9F3"/>
<path d="M1120.36 734.086H1063.43V1023.92H1120.36V734.086Z" fill="#F8F9F3"/>
<path d="M664.365 734.086H607.438V1023.92H664.365V734.086Z" fill="#F8F9F3"/>
<path d="M768.748 833.6H664.363V1023.93H768.748V833.6Z" fill="#D8D8D8"/>
<path d="M1016.23 597.411H959.186V724.587H1016.23V597.411Z" fill="#D8D8D8"/>
<path d="M768.749 597.411H711.708V724.587H768.749V597.411Z" fill="#D8D8D8"/>
<path d="M1027.64 590.98H700.299V611.445H1027.64V590.98Z" fill="#D8D8D8"/>
<path d="M607.928 611.444H503.543V1023.92H607.928V611.444Z" fill="#F8F9F3"/>
<path d="M607.928 518.021H503.543V590.976H607.928V518.021Z" fill="#F8F9F3"/>
<path d="M607.592 482.076H503.207V497.557H607.592V482.076Z" fill="#F8F9F3"/>
<path d="M619.052 590.98H273.895V611.445H619.052V590.98Z" fill="#D8D8D8"/>
<path d="M619.049 714.353H284.266V734.818H619.049V714.353Z" fill="#D8D8D8"/>
<path d="M619.053 497.557H492.418V518.022H619.053V497.557Z" fill="#D8D8D8"/>
<path d="M503.538 611.444H357.356V1023.92H503.538V611.444Z" fill="#D8D8D8"/>
<path d="M1727.93 734.086H1443.67V1023.92H1727.93V734.086Z" fill="#F8F9F3"/>
<path d="M284.266 734.086H0V1023.92H284.266V734.086Z" fill="#D8D8D8"/>
<path d="M1454.04 590.98H1108.88V611.445H1454.04V590.98Z" fill="#D8D8D8"/>
<path d="M1443.67 714.353H1108.88V734.818H1443.67V714.353Z" fill="#D8D8D8"/>
<path d="M1727.84 714.346H1443.67V734.824H1727.84V714.346Z" fill="#F8F9F3"/>
<path d="M1727.84 813.127H1443.67V833.606H1727.84V813.127Z" fill="#F8F9F3"/>
<path d="M284.218 714.339H0.0488281V734.818H284.218V714.339Z" fill="#F8F9F3"/>
<path d="M284.218 813.12H0.0488281V833.599H284.218V813.12Z" fill="#F8F9F3"/>
<path d="M1235.52 497.557H1108.88V518.022H1235.52V497.557Z" fill="#D8D8D8"/>
<path d="M1072.64 713.621H655.292V734.086H1072.64V713.621Z" fill="#D8D8D8"/>
<path d="M1443.67 813.134H284.094V833.599H1443.67V813.134Z" fill="#D8D8D8"/>
<path d="M987.708 532.506H959.186V593.317H987.708V532.506Z" fill="#D8D8D8"/>
<path d="M768.753 532.506H740.23V593.317H768.753V532.506Z" fill="#D8D8D8"/>
<path d="M969.716 439.535H758.219V460H969.716V439.535Z" fill="#D8D8D8"/>
<path d="M969.716 347.884H758.219V368.349H969.716V347.884Z" fill="#D8D8D8"/>
<path d="M768.748 734.086H664.363V813.131H768.748V734.086Z" fill="#D8D8D8"/>
<path d="M1215.93 431.208H1215.92C1211.44 431.208 1207.8 434.842 1207.8 439.328V482.075H1200.37V425.623C1200.37 421.139 1196.73 417.502 1192.24 417.502H1192.23C1187.74 417.502 1184.11 421.139 1184.11 425.623V482.075H1164.22V425.623C1164.22 421.139 1160.58 417.502 1156.09 417.502H1156.08C1151.59 417.502 1147.96 421.136 1147.96 425.623V482.075H1135.93V439.301C1135.93 434.817 1132.29 431.18 1127.81 431.18H1127.79C1123.31 431.18 1119.67 434.817 1119.67 439.301V482.075V482.082V497.556H1224.05V482.106V482.072V439.325C1224.06 434.841 1220.42 431.208 1215.93 431.208Z" fill="#F8F9F3"/>
<path d="M607.593 482.111H591.329V439.329C591.329 434.846 594.968 431.209 599.454 431.209H599.468C603.954 431.209 607.593 434.843 607.593 439.329V482.111Z" fill="#F8F9F3"/>
<path d="M583.902 482.072H567.638V425.586C567.638 421.102 571.273 417.465 575.763 417.465H575.777C580.263 417.465 583.902 421.102 583.902 425.586V482.072Z" fill="#F8F9F3"/>
<path d="M547.756 482.11H531.495V425.623C531.495 421.139 535.131 417.502 539.62 417.502H539.634C544.12 417.502 547.759 421.136 547.759 425.623L547.756 482.11Z" fill="#F8F9F3"/>
<path d="M519.468 482.082H503.204V439.301C503.204 434.817 506.84 431.18 511.329 431.18H511.343C515.829 431.18 519.468 434.817 519.468 439.301V482.082Z" fill="#F8F9F3"/>
<path d="M546.649 813.094H520.916V765.477C520.916 758.379 526.674 752.625 533.776 752.625H533.79C540.892 752.625 546.649 758.379 546.649 765.477V813.094Z" fill="#001E08"/>
<path d="M591.39 813.094H565.656V765.477C565.656 758.379 571.414 752.625 578.516 752.625H578.526C585.628 752.625 591.386 758.379 591.386 765.477L591.39 813.094Z" fill="#001E08"/>
<path d="M546.649 714.35H520.916V666.733C520.916 659.635 526.674 653.88 533.776 653.88H533.79C540.892 653.88 546.649 659.635 546.649 666.733V714.35Z" fill="#001E08"/>
<path d="M591.39 714.35H565.656V666.733C565.656 659.635 571.414 653.881 578.516 653.881H578.526C585.628 653.881 591.386 659.635 591.386 666.733L591.39 714.35Z" fill="#001E08"/>
<path d="M1162.56 714.35H1136.82V666.733C1136.82 659.635 1142.58 653.88 1149.68 653.88H1149.7C1156.8 653.88 1162.56 659.635 1162.56 666.733V714.35Z" fill="#001E08"/>
<path d="M1207.3 714.35H1181.56V666.733C1181.56 659.635 1187.32 653.88 1194.42 653.88H1194.44C1201.54 653.88 1207.3 659.635 1207.3 666.733V714.35Z" fill="#001E08"/>
<path d="M1266.25 714.35H1240.51V666.733C1240.51 659.635 1246.27 653.88 1253.37 653.88H1253.38C1260.49 653.88 1266.24 659.635 1266.24 666.733L1266.25 714.35Z" fill="#001E08"/>
<path d="M1310.99 714.35H1285.25V666.733C1285.25 659.635 1291.01 653.88 1298.11 653.88H1298.13C1305.23 653.88 1310.99 659.635 1310.99 666.733V714.35Z" fill="#001E08"/>
<path d="M1354.75 714.35H1329.02V666.733C1329.02 659.635 1334.78 653.88 1341.88 653.88H1341.9C1349 653.88 1354.75 659.635 1354.75 666.733V714.35Z" fill="#001E08"/>
<path d="M1267.22 1023.8H1241.49V870.43C1241.49 863.332 1247.24 857.577 1254.35 857.577H1254.36C1261.46 857.577 1267.22 863.332 1267.22 870.43V1023.8Z" fill="#001E08"/>
<path d="M1311.96 1023.8H1286.23V870.43C1286.23 863.332 1291.98 857.577 1299.09 857.577H1299.1C1306.2 857.577 1311.96 863.332 1311.96 870.43V1023.8H1311.96Z" fill="#001E08"/>
<path d="M1355.73 1023.8H1329.99V870.43C1329.99 863.332 1335.75 857.577 1342.85 857.577H1342.87C1349.97 857.577 1355.73 863.332 1355.73 870.43V1023.8Z" fill="#001E08"/>
<path d="M1266.73 813.094H1241V765.477C1241 758.379 1246.76 752.625 1253.86 752.625H1253.87C1260.97 752.625 1266.73 758.379 1266.73 765.477V813.094H1266.73Z" fill="#001E08"/>
<path d="M1311.47 813.094H1285.74V765.477C1285.74 758.379 1291.5 752.625 1298.6 752.625H1298.61C1305.71 752.625 1311.47 758.379 1311.47 765.477V813.094Z" fill="#001E08"/>
<path d="M1355.24 813.094H1329.51V765.477C1329.51 758.379 1335.27 752.625 1342.37 752.625H1342.38C1349.48 752.625 1355.24 758.379 1355.24 765.477V813.094H1355.24Z" fill="#001E08"/>
<path d="M399.05 714.354H373.307V666.716C373.307 659.618 379.064 653.864 386.166 653.864H386.187C393.289 653.864 399.047 659.618 399.047 666.716V714.354H399.05Z" fill="#001E08"/>
<path d="M444.269 714.35H418.535V666.733C418.535 659.635 424.293 653.88 431.395 653.88H431.405C438.507 653.88 444.265 659.635 444.265 666.733V714.35H444.269Z" fill="#001E08"/>
<path d="M488.036 714.35H462.303V666.733C462.303 659.635 468.06 653.88 475.162 653.88H475.176C482.278 653.88 488.036 659.635 488.036 666.733V714.35Z" fill="#001E08"/>
<path d="M400.498 1023.8H374.765V870.43C374.765 863.332 380.522 857.577 387.624 857.577H387.638C394.74 857.577 400.498 863.332 400.498 870.43V1023.8Z" fill="#001E08"/>
<path d="M445.239 1023.8H419.506V870.43C419.506 863.332 425.264 857.577 432.366 857.577H432.379C439.482 857.577 445.239 863.332 445.239 870.43V1023.8Z" fill="#001E08"/>
<path d="M489.006 1023.8H463.272V870.43C463.272 863.332 469.03 857.577 476.132 857.577H476.143C483.245 857.577 489.002 863.332 489.002 870.43L489.006 1023.8Z" fill="#001E08"/>
<path d="M400.015 813.094H374.281V765.477C374.281 758.379 380.039 752.625 387.141 752.625H387.151C394.253 752.625 400.011 758.379 400.011 765.477L400.015 813.094Z" fill="#001E08"/>
<path d="M444.751 813.094H419.018V765.477C419.018 758.379 424.775 752.625 431.877 752.625H431.888C438.99 752.625 444.747 758.379 444.747 765.477V813.094H444.751Z" fill="#001E08"/>
<path d="M488.521 813.094H462.788V765.477C462.788 758.379 468.546 752.625 475.648 752.625H475.658C482.76 752.625 488.518 758.379 488.518 765.477L488.521 813.094Z" fill="#001E08"/>
<path d="M1486.41 1023.8H1460.68V870.43C1460.68 863.332 1466.44 857.577 1473.54 857.577H1473.55C1480.65 857.577 1486.41 863.332 1486.41 870.43V1023.8Z" fill="#001E08"/>
<path d="M1531.15 1023.8H1505.42V870.43C1505.42 863.332 1511.18 857.577 1518.28 857.577H1518.29C1525.39 857.577 1531.15 863.332 1531.15 870.43V1023.8H1531.15Z" fill="#001E08"/>
<path d="M1574.92 1023.8H1549.19V870.43C1549.19 863.332 1554.94 857.577 1562.05 857.577H1562.06C1569.16 857.577 1574.92 863.332 1574.92 870.43V1023.8Z" fill="#001E08"/>
<path d="M1485.93 813.094H1460.19V765.477C1460.19 758.379 1465.95 752.625 1473.05 752.625H1473.07C1480.17 752.625 1485.93 758.379 1485.93 765.477V813.094Z" fill="#001E08"/>
<path d="M1530.67 813.094H1504.93V765.477C1504.93 758.379 1510.69 752.625 1517.79 752.625H1517.81C1524.91 752.625 1530.67 758.379 1530.67 765.477V813.094Z" fill="#001E08"/>
<path d="M1574.43 813.094H1548.7V765.477C1548.7 758.379 1554.46 752.625 1561.56 752.625H1561.57C1568.67 752.625 1574.43 758.379 1574.43 765.477V813.094H1574.43Z" fill="#001E08"/>
<path d="M1617.96 1023.8H1592.23V870.43C1592.23 863.332 1597.99 857.577 1605.09 857.577H1605.1C1612.2 857.577 1617.96 863.332 1617.96 870.43V1023.8H1617.96Z" fill="#001E08"/>
<path d="M1662.7 1023.8H1636.97V870.43C1636.97 863.332 1642.73 857.577 1649.83 857.577H1649.84C1656.94 857.577 1662.7 863.332 1662.7 870.43V1023.8Z" fill="#001E08"/>
<path d="M1706.47 1023.8H1680.73V870.43C1680.73 863.332 1686.49 857.577 1693.59 857.577H1693.61C1700.71 857.577 1706.47 863.332 1706.47 870.43V1023.8Z" fill="#001E08"/>
<path d="M1617.48 813.094H1591.74V765.477C1591.74 758.379 1597.5 752.625 1604.6 752.625H1604.62C1611.72 752.625 1617.48 758.379 1617.48 765.477V813.094Z" fill="#001E08"/>
<path d="M1662.21 813.094H1636.48V765.477C1636.48 758.379 1642.24 752.625 1649.34 752.625H1649.35C1656.46 752.625 1662.21 758.379 1662.21 765.477V813.094Z" fill="#001E08"/>
<path d="M1705.98 813.094H1680.25V765.477C1680.25 758.379 1686.01 752.625 1693.11 752.625H1693.12C1700.22 752.625 1705.98 758.379 1705.98 765.477V813.094H1705.98Z" fill="#001E08"/>
<path d="M42.6642 1023.93H16.9204V870.489C16.9204 863.391 22.6781 857.636 29.7802 857.636H29.8009C36.903 857.636 42.6607 863.391 42.6607 870.489V1023.93H42.6642Z" fill="#001E08"/>
<path d="M87.4185 1023.93H61.6782V870.489C61.6782 863.391 67.4359 857.636 74.538 857.636H74.5587C81.6608 857.636 87.4185 863.391 87.4185 870.489V1023.93Z" fill="#001E08"/>
<path d="M131.202 1023.93H105.458V870.489C105.458 863.391 111.216 857.636 118.318 857.636H118.339C125.441 857.636 131.199 863.391 131.199 870.489L131.202 1023.93Z" fill="#001E08"/>
<path d="M42.1763 813.135H16.436V765.494C16.436 758.396 22.1937 752.642 29.2958 752.642H29.3165C36.4186 752.642 42.1763 758.396 42.1763 765.494V813.135Z" fill="#001E08"/>
<path d="M86.9356 813.135H61.1919V765.494C61.1919 758.396 66.9496 752.642 74.0517 752.642H74.0724C81.1745 752.642 86.9322 758.396 86.9322 765.494V813.135H86.9356Z" fill="#001E08"/>
<path d="M130.72 813.135H104.976V765.494C104.976 758.396 110.734 752.642 117.836 752.642H117.857C124.959 752.642 130.716 758.396 130.716 765.494L130.72 813.135Z" fill="#001E08"/>
<path d="M174.261 1023.93H148.517V870.489C148.517 863.391 154.275 857.636 161.377 857.636H161.398C168.5 857.636 174.257 863.391 174.257 870.489L174.261 1023.93Z" fill="#001E08"/>
<path d="M219.017 1023.93H193.273V870.489C193.273 863.391 199.031 857.636 206.133 857.636H206.153C213.256 857.636 219.013 863.391 219.013 870.489L219.017 1023.93Z" fill="#001E08"/>
<path d="M262.8 1023.93H237.057V870.489C237.057 863.391 242.814 857.636 249.916 857.636H249.937C257.039 857.636 262.797 863.391 262.797 870.489L262.8 1023.93Z" fill="#001E08"/>
<path d="M173.775 813.135H148.031V765.494C148.031 758.396 153.788 752.642 160.891 752.642H160.911C168.013 752.642 173.771 758.396 173.771 765.494V813.135H173.775Z" fill="#001E08"/>
<path d="M218.532 813.135H192.789V765.494C192.789 758.396 198.546 752.642 205.648 752.642H205.669C212.771 752.642 218.529 758.396 218.529 765.494V813.135H218.532Z" fill="#001E08"/>
<path d="M262.316 813.135H236.572V765.494C236.572 758.396 242.33 752.642 249.432 752.642H249.453C256.555 752.642 262.313 758.396 262.313 765.494L262.316 813.135Z" fill="#001E08"/>
<path d="M546.649 1023.8H520.916V870.43C520.916 863.332 526.674 857.577 533.776 857.577H533.79C540.892 857.577 546.649 863.332 546.649 870.43V1023.8Z" fill="#001E08"/>
<path d="M591.39 1023.8H565.656V870.43C565.656 863.332 571.414 857.577 578.516 857.577H578.526C585.628 857.577 591.386 863.332 591.386 870.43L591.39 1023.8Z" fill="#001E08"/>
<path d="M535.697 590.981H517.854V542.587C517.854 537.665 521.845 533.675 526.767 533.675H526.78C531.705 533.675 535.693 537.665 535.693 542.587V590.981H535.697Z" fill="#001E08"/>
<path d="M564.653 590.981H546.81V542.587C546.81 537.665 550.801 533.675 555.723 533.675H555.736C560.661 533.675 564.649 537.665 564.649 542.587V590.981H564.653Z" fill="#001E08"/>
<path d="M593.616 590.981H575.772V542.587C575.772 537.665 579.764 533.675 584.685 533.675H584.699C589.624 533.675 593.612 537.665 593.612 542.587V590.981H593.616Z" fill="#001E08"/>
<path d="M844.245 590.729H826.408V485.074C826.408 480.156 830.4 476.167 835.321 476.167H835.332C840.256 476.167 844.245 480.156 844.245 485.078V590.729Z" fill="#001E08"/>
<path d="M873.192 590.729H855.355V485.074C855.355 480.152 859.347 476.163 864.269 476.163H864.275C869.2 476.163 873.188 480.152 873.188 485.074V590.729H873.192Z" fill="#001E08"/>
<path d="M1000.83 713.618H975.099V638.942C975.099 631.844 980.856 626.09 987.958 626.09H987.972C995.074 626.09 1000.83 631.844 1000.83 638.942V713.618Z" fill="#001E08"/>
<path d="M807.395 813.094H781.662V765.477C781.662 758.379 787.42 752.625 794.522 752.625H794.532C801.634 752.625 807.392 758.379 807.392 765.477L807.395 813.094Z" fill="#001E08"/>
<path d="M852.139 813.094H826.405V765.477C826.405 758.379 832.163 752.625 839.265 752.625H839.279C846.381 752.625 852.139 758.379 852.139 765.477V813.094Z" fill="#001E08"/>
<path d="M919.795 1023.8H808.75V913.042C808.75 882.411 833.595 857.577 864.246 857.577H864.298C894.946 857.577 919.795 882.408 919.795 913.042V1023.8Z" fill="#001E08"/>
<path d="M1001.98 813.094H976.25V765.477C976.25 758.379 982.008 752.625 989.11 752.625H989.124C996.226 752.625 1001.98 758.379 1001.98 765.477V813.094Z" fill="#001E08"/>
<path d="M1046.72 813.094H1020.99V765.477C1020.99 758.379 1026.75 752.625 1033.85 752.625H1033.86C1040.96 752.625 1046.72 758.379 1046.72 765.477V813.094H1046.72Z" fill="#001E08"/>
<path d="M1162.89 813.094H1137.16V765.477C1137.16 758.379 1142.92 752.625 1150.02 752.625H1150.03C1157.13 752.625 1162.89 758.379 1162.89 765.477V813.094Z" fill="#001E08"/>
<path d="M1207.63 813.094H1181.9V765.477C1181.9 758.379 1187.66 752.625 1194.76 752.625H1194.77C1201.88 752.625 1207.63 758.379 1207.63 765.477V813.094Z" fill="#001E08"/>
<path d="M1162.89 1023.8H1137.16V870.43C1137.16 863.332 1142.92 857.577 1150.02 857.577H1150.03C1157.13 857.577 1162.89 863.332 1162.89 870.43V1023.8Z" fill="#001E08"/>
<path d="M1031.72 1023.8H991.252V877.79C991.252 866.627 1000.31 857.577 1011.48 857.577H1011.5C1022.67 857.577 1031.72 866.627 1031.72 877.79V1023.8Z" fill="#001E08"/>
<path d="M737.153 1023.8H696.684V877.79C696.684 866.627 705.738 857.577 716.908 857.577H716.925C728.095 857.577 737.15 866.627 737.15 877.79L737.153 1023.8Z" fill="#001E08"/>
<path d="M1207.63 1023.8H1181.9V870.43C1181.9 863.332 1187.66 857.577 1194.76 857.577H1194.77C1201.88 857.577 1207.63 863.332 1207.63 870.43V1023.8Z" fill="#001E08"/>
<path d="M707.415 813.094H681.682V765.477C681.682 758.379 687.439 752.625 694.541 752.625H694.552C701.654 752.625 707.412 758.379 707.412 765.477V813.094H707.415Z" fill="#001E08"/>
<path d="M752.155 813.094H726.422V765.477C726.422 758.379 732.18 752.625 739.282 752.625H739.295C746.398 752.625 752.155 758.379 752.155 765.477V813.094Z" fill="#001E08"/>
<path d="M898.924 813.094H873.19V765.477C873.19 758.379 878.948 752.625 886.05 752.625H886.064C893.166 752.625 898.924 758.379 898.924 765.477V813.094Z" fill="#001E08"/>
<path d="M946.88 813.094H921.146V765.477C921.146 758.379 926.904 752.625 934.006 752.625H934.02C941.122 752.625 946.88 758.379 946.88 765.477V813.094Z" fill="#001E08"/>
<path d="M753.445 713.618H727.712V638.942C727.712 631.844 733.47 626.09 740.572 626.09H740.582C747.684 626.09 753.442 631.844 753.442 638.942V713.618H753.445Z" fill="#001E08"/>
<path d="M902.143 590.729H884.307V485.074C884.307 480.152 888.298 476.163 893.22 476.163H893.227C898.151 476.163 902.14 480.152 902.14 485.071L902.143 590.729Z" fill="#001E08"/>
<path d="M1152.36 591.019H1134.53V542.646C1134.53 537.724 1138.52 533.738 1143.44 533.738H1143.45C1148.37 533.738 1152.36 537.727 1152.36 542.649V591.019H1152.36Z" fill="#001E08"/>
<path d="M1181.31 591.019H1163.48V542.649C1163.48 537.727 1167.47 533.738 1172.39 533.738H1172.4C1177.33 533.738 1181.31 537.727 1181.31 542.649V591.019Z" fill="#001E08"/>
<path d="M1210.26 591.019H1192.43V542.649C1192.43 537.727 1196.42 533.738 1201.34 533.738H1201.35C1206.27 533.738 1210.26 537.727 1210.26 542.646L1210.26 591.019Z" fill="#001E08"/>
<path d="M891.177 404.855C891.177 419.703 879.133 431.741 864.276 431.741C849.418 431.741 837.374 419.703 837.374 404.855C837.374 390.006 849.418 377.969 864.276 377.969C879.133 377.969 891.177 390.006 891.177 404.855Z" fill="#001E08"/>
<path d="M864.271 631.057C818.648 631.057 781.662 668.021 781.662 713.618H946.88C946.88 668.021 909.897 631.057 864.271 631.057Z" fill="#001E08"/>
<path d="M1728 1023.93H0V1070.39H1728V1023.93Z" fill="#D8D8D8"/>
<path d="M1728 1070.39H0V1116.86H1728V1070.39Z" fill="#D8D8D8"/>
<path d="M1679.22 402.513H1506.11V452.167H1679.22V402.513Z" fill="#F8F9F3"/>
<path d="M1699.73 543.722H1485.6V714.353H1699.73V543.722Z" fill="#F8F9F3"/>
<path d="M1690.83 452.164H1494.5V543.719H1690.83V452.164Z" fill="#F8F9F3"/>
<path d="M1616.46 310.284H1568.87V275.122C1568.87 261.987 1579.52 251.338 1592.66 251.338C1605.81 251.338 1616.46 261.987 1616.46 275.122L1616.46 310.284Z" fill="#D8D8D8"/>
<path d="M1579.51 201.527C1567.04 197.904 1554.18 201.942 1545.91 210.836C1552.42 208.363 1559.74 207.872 1566.95 209.965C1584.57 215.084 1594.7 233.511 1589.57 251.12C1588.08 256.266 1585.42 260.749 1582 264.424C1591.41 260.85 1599.11 253.088 1602.14 242.678C1607.26 225.076 1597.13 206.649 1579.51 201.527Z" fill="#D8D8D8"/>
<path d="M1577.48 222.721C1575.08 230.955 1577.75 239.442 1583.63 244.909C1581.99 240.609 1581.67 235.774 1583.05 231.017C1586.44 219.384 1598.62 212.694 1610.26 216.075C1613.66 217.063 1616.63 218.821 1619.06 221.077C1616.69 214.86 1611.56 209.779 1604.68 207.779C1593.04 204.397 1580.86 211.088 1577.48 222.721Z" fill="#D8D8D8"/>
<path d="M1669.07 402.511H1516.25V362.583C1516.25 320.406 1550.46 286.215 1592.67 286.215C1634.87 286.215 1669.08 320.406 1669.08 362.583L1669.07 402.511Z" fill="#F8F9F3"/>
<path d="M1626.23 423.852C1638.02 405.362 1632.58 380.819 1614.08 369.034C1595.58 357.249 1571.03 362.684 1559.23 381.175C1547.44 399.665 1552.88 424.208 1571.38 435.993C1589.88 447.778 1614.44 442.342 1626.23 423.852Z" fill="#D8D8D8"/>
<path d="M1539.74 543.722H1513.99V484.772C1513.99 477.674 1519.75 471.92 1526.85 471.92H1526.87C1533.98 471.92 1539.73 477.674 1539.73 484.772V543.722H1539.74Z" fill="#001E08"/>
<path d="M1583.52 543.722H1557.78V484.772C1557.78 477.674 1563.54 471.92 1570.64 471.92H1570.66C1577.76 471.92 1583.52 477.674 1583.52 484.772V543.722H1583.52Z" fill="#001E08"/>
<path d="M1626.58 543.722H1600.83V484.772C1600.83 477.674 1606.59 471.92 1613.69 471.92H1613.71C1620.82 471.92 1626.57 477.674 1626.57 484.772V543.722H1626.58Z" fill="#001E08"/>
<path d="M1671.33 543.722H1645.59V484.772C1645.59 477.674 1651.35 471.92 1658.45 471.92H1658.47C1665.57 471.92 1671.33 477.674 1671.33 484.772V543.722H1671.33Z" fill="#001E08"/>
<path d="M1583.52 714.353H1513.77V612.052C1513.77 592.803 1529.38 577.194 1548.65 577.194C1567.91 577.194 1583.52 592.8 1583.52 612.052V714.353H1583.52Z" fill="#001E08"/>
<path d="M1671.33 714.353H1601.58V612.052C1601.58 592.803 1617.19 577.194 1636.46 577.194C1655.72 577.194 1671.33 592.8 1671.33 612.052V714.353Z" fill="#001E08"/>
<path d="M1143.08 164.491C1149.92 123.688 1122.36 85.0701 1081.54 78.2358C1040.71 71.4014 1002.07 98.9387 995.23 139.742C988.392 180.545 1015.95 219.163 1056.77 225.997C1097.6 232.831 1136.24 205.294 1143.08 164.491Z" fill="white"/>
</g>
</g>
<defs>
<clipPath id="clip0_160_4598">
<rect width="1728" height="1117" fill="white"/>
</clipPath>
<clipPath id="clip1_160_4598">
<rect width="1728" height="1727" fill="white" transform="translate(0 -235)"/>
</clipPath>
</defs>
</svg>
